<mxfile host="app.diagrams.net" agent="Mozilla/5.0 (Windows NT 10.0; Win64; x64) AppleWebKit/537.36 (KHTML, like Gecko) Chrome/135.0.0.0 Safari/537.36" version="27.0.3" pages="2">
  <diagram id="prtHgNgQTEPvFCAcTncT" name="Current Process">
    <mxGraphModel dx="1042" dy="562" grid="1" gridSize="10" guides="1" tooltips="1" connect="1" arrows="1" fold="1" page="1" pageScale="1" pageWidth="827" pageHeight="1169" background="#ffffff" math="0" shadow="0">
      <root>
        <mxCell id="0" />
        <mxCell id="1" parent="0" />
        <mxCell id="dNxyNK7c78bLwvsdeMH5-19" value="User story" style="swimlane;html=1;childLayout=stackLayout;resizeParent=1;resizeParentMax=0;horizontal=0;startSize=20;horizontalStack=0;" parent="1" vertex="1">
          <mxGeometry x="120" y="15" width="460" height="1140" as="geometry" />
        </mxCell>
        <mxCell id="dNxyNK7c78bLwvsdeMH5-20" value="Product Manager" style="swimlane;html=1;startSize=20;horizontal=0;fontSize=12;" parent="dNxyNK7c78bLwvsdeMH5-19" vertex="1">
          <mxGeometry x="20" width="440" height="180" as="geometry" />
        </mxCell>
        <mxCell id="_NAjd95ejBewOYBBOETD-31" style="edgeStyle=orthogonalEdgeStyle;rounded=0;orthogonalLoop=1;jettySize=auto;html=1;exitX=0.5;exitY=1;exitDx=0;exitDy=0;exitPerimeter=0;" parent="dNxyNK7c78bLwvsdeMH5-20" source="s78XeC1ukGy34A1hPwvS-5" target="s78XeC1ukGy34A1hPwvS-6" edge="1">
          <mxGeometry relative="1" as="geometry" />
        </mxCell>
        <mxCell id="s78XeC1ukGy34A1hPwvS-5" value="Gathering&lt;div&gt;requirements&lt;/div&gt;" style="points=[[0.145,0.145,0],[0.5,0,0],[0.855,0.145,0],[1,0.5,0],[0.855,0.855,0],[0.5,1,0],[0.145,0.855,0],[0,0.5,0]];shape=mxgraph.bpmn.event;html=1;verticalLabelPosition=bottom;labelBackgroundColor=#ffffff;verticalAlign=top;align=center;perimeter=ellipsePerimeter;outlineConnect=0;aspect=fixed;outline=standard;symbol=general;direction=east;rotation=270;" parent="dNxyNK7c78bLwvsdeMH5-20" vertex="1">
          <mxGeometry x="50" y="70" width="30" height="30" as="geometry" />
        </mxCell>
        <mxCell id="s78XeC1ukGy34A1hPwvS-6" value="Draft PRD" style="rounded=1;whiteSpace=wrap;html=1;verticalAlign=top;labelBackgroundColor=#ffffff;fillStyle=solid;direction=east;rotation=270;" parent="dNxyNK7c78bLwvsdeMH5-20" vertex="1">
          <mxGeometry x="110" y="70" width="120" height="30" as="geometry" />
        </mxCell>
        <mxCell id="_NAjd95ejBewOYBBOETD-22" value="Test Feature" style="rounded=1;whiteSpace=wrap;html=1;verticalAlign=top;labelBackgroundColor=#ffffff;fillStyle=solid;direction=east;rotation=270;" parent="dNxyNK7c78bLwvsdeMH5-20" vertex="1">
          <mxGeometry x="350" y="70" width="120" height="30" as="geometry" />
        </mxCell>
        <mxCell id="_NAjd95ejBewOYBBOETD-57" value="Check Design" style="rounded=1;whiteSpace=wrap;html=1;verticalAlign=top;labelBackgroundColor=#ffffff;fillStyle=solid;direction=east;rotation=270;" parent="dNxyNK7c78bLwvsdeMH5-20" vertex="1">
          <mxGeometry x="270" y="70" width="120" height="30" as="geometry" />
        </mxCell>
        <mxCell id="dNxyNK7c78bLwvsdeMH5-21" value="Designer" style="swimlane;html=1;startSize=20;horizontal=0;" parent="dNxyNK7c78bLwvsdeMH5-19" vertex="1">
          <mxGeometry x="20" y="180" width="440" height="160" as="geometry" />
        </mxCell>
        <mxCell id="s78XeC1ukGy34A1hPwvS-8" value="Create wireframe&lt;br&gt;and&lt;br&gt;UI Pages" style="whiteSpace=wrap;html=1;verticalAlign=top;rounded=1;labelBackgroundColor=#ffffff;direction=east;rotation=270;" parent="dNxyNK7c78bLwvsdeMH5-21" vertex="1">
          <mxGeometry x="110" y="50" width="120" height="60" as="geometry" />
        </mxCell>
        <mxCell id="dNxyNK7c78bLwvsdeMH5-22" value="Design Lead" style="swimlane;html=1;startSize=20;horizontal=0;" parent="dNxyNK7c78bLwvsdeMH5-19" vertex="1">
          <mxGeometry x="20" y="340" width="440" height="170" as="geometry" />
        </mxCell>
        <mxCell id="_NAjd95ejBewOYBBOETD-36" style="edgeStyle=orthogonalEdgeStyle;rounded=0;orthogonalLoop=1;jettySize=auto;html=1;exitX=0.5;exitY=1;exitDx=0;exitDy=0;" parent="dNxyNK7c78bLwvsdeMH5-22" source="s78XeC1ukGy34A1hPwvS-10" target="s78XeC1ukGy34A1hPwvS-23" edge="1">
          <mxGeometry relative="1" as="geometry" />
        </mxCell>
        <mxCell id="s78XeC1ukGy34A1hPwvS-10" value="Check Designs" style="rounded=1;whiteSpace=wrap;html=1;verticalAlign=top;labelBackgroundColor=#ffffff;direction=east;rotation=270;" parent="dNxyNK7c78bLwvsdeMH5-22" vertex="1">
          <mxGeometry x="110" y="70" width="120" height="30" as="geometry" />
        </mxCell>
        <mxCell id="s78XeC1ukGy34A1hPwvS-23" value="" style="shape=mxgraph.bpmn.gateway2;html=1;verticalLabelPosition=bottom;labelBackgroundColor=#ffffff;verticalAlign=top;align=center;outlineConnect=0;outline=end;symbol=general;points=[[0.25,0.25,0],[0.5,0,0],[0.75,0.25,0],[1,0.5,0],[0.75,0.75,0],[0.5,1,0],[0.25,0.75,0],[0,0.5,0]];perimeter=rhombusPerimeter;direction=east;rotation=270;" parent="dNxyNK7c78bLwvsdeMH5-22" vertex="1">
          <mxGeometry x="240" y="60" width="50" height="50" as="geometry" />
        </mxCell>
        <mxCell id="s78XeC1ukGy34A1hPwvS-1" value="Backend Dev" style="swimlane;html=1;startSize=20;horizontal=0;" parent="dNxyNK7c78bLwvsdeMH5-19" vertex="1">
          <mxGeometry x="20" y="510" width="440" height="140" as="geometry" />
        </mxCell>
        <mxCell id="s78XeC1ukGy34A1hPwvS-17" value="Database&lt;div&gt;and&lt;/div&gt;&lt;div&gt;Backend Code&lt;/div&gt;" style="rounded=1;whiteSpace=wrap;html=1;verticalAlign=top;labelBackgroundColor=#ffffff;direction=east;rotation=270;" parent="s78XeC1ukGy34A1hPwvS-1" vertex="1">
          <mxGeometry x="110" y="40" width="120" height="60" as="geometry" />
        </mxCell>
        <mxCell id="_NAjd95ejBewOYBBOETD-5" value="Front Dev" style="swimlane;html=1;startSize=20;horizontal=0;" parent="dNxyNK7c78bLwvsdeMH5-19" vertex="1">
          <mxGeometry x="20" y="650" width="440" height="160" as="geometry" />
        </mxCell>
        <mxCell id="s78XeC1ukGy34A1hPwvS-30" value="Create&amp;nbsp;&lt;div&gt;UI Pages&amp;nbsp;&lt;span style=&quot;background-color: light-dark(rgb(255, 255, 255), rgb(18, 18, 18)); color: light-dark(rgb(0, 0, 0), rgb(255, 255, 255));&quot;&gt;Code&lt;br&gt;Implement APIs&lt;/span&gt;&lt;/div&gt;" style="rounded=1;whiteSpace=wrap;html=1;verticalAlign=top;labelBackgroundColor=#ffffff;direction=east;rotation=270;" parent="_NAjd95ejBewOYBBOETD-5" vertex="1">
          <mxGeometry x="110" y="50" width="120" height="60" as="geometry" />
        </mxCell>
        <mxCell id="_NAjd95ejBewOYBBOETD-33" style="edgeStyle=orthogonalEdgeStyle;rounded=0;orthogonalLoop=1;jettySize=auto;html=1;exitX=0;exitY=0.5;exitDx=0;exitDy=0;entryX=1;entryY=0.5;entryDx=0;entryDy=0;" parent="dNxyNK7c78bLwvsdeMH5-19" source="s78XeC1ukGy34A1hPwvS-6" target="s78XeC1ukGy34A1hPwvS-8" edge="1">
          <mxGeometry relative="1" as="geometry" />
        </mxCell>
        <mxCell id="_NAjd95ejBewOYBBOETD-35" style="edgeStyle=orthogonalEdgeStyle;rounded=0;orthogonalLoop=1;jettySize=auto;html=1;entryX=1;entryY=0.5;entryDx=0;entryDy=0;" parent="dNxyNK7c78bLwvsdeMH5-19" source="s78XeC1ukGy34A1hPwvS-8" target="s78XeC1ukGy34A1hPwvS-10" edge="1">
          <mxGeometry relative="1" as="geometry" />
        </mxCell>
        <mxCell id="_NAjd95ejBewOYBBOETD-39" style="edgeStyle=orthogonalEdgeStyle;rounded=0;orthogonalLoop=1;jettySize=auto;html=1;exitX=0;exitY=0.5;exitDx=0;exitDy=0;exitPerimeter=0;entryX=0.5;entryY=1;entryDx=0;entryDy=0;" parent="dNxyNK7c78bLwvsdeMH5-19" source="s78XeC1ukGy34A1hPwvS-23" target="s78XeC1ukGy34A1hPwvS-17" edge="1">
          <mxGeometry relative="1" as="geometry" />
        </mxCell>
        <mxCell id="_NAjd95ejBewOYBBOETD-40" style="edgeStyle=orthogonalEdgeStyle;rounded=0;orthogonalLoop=1;jettySize=auto;html=1;exitX=0.5;exitY=0;exitDx=0;exitDy=0;entryX=0.5;entryY=0;entryDx=0;entryDy=0;" parent="dNxyNK7c78bLwvsdeMH5-19" source="s78XeC1ukGy34A1hPwvS-17" target="s78XeC1ukGy34A1hPwvS-30" edge="1">
          <mxGeometry relative="1" as="geometry">
            <Array as="points">
              <mxPoint x="110" y="580" />
              <mxPoint x="110" y="730" />
            </Array>
          </mxGeometry>
        </mxCell>
        <mxCell id="_NAjd95ejBewOYBBOETD-7" value="Tech Lead" style="swimlane;html=1;startSize=20;horizontal=0;" parent="dNxyNK7c78bLwvsdeMH5-19" vertex="1">
          <mxGeometry x="20" y="810" width="440" height="170" as="geometry" />
        </mxCell>
        <mxCell id="_NAjd95ejBewOYBBOETD-55" value="Check&amp;nbsp;&lt;div&gt;Feasibility&lt;/div&gt;" style="rounded=1;whiteSpace=wrap;html=1;verticalAlign=top;labelBackgroundColor=#ffffff;direction=east;rotation=270;" parent="_NAjd95ejBewOYBBOETD-7" vertex="1">
          <mxGeometry x="292.5" y="62.5" width="120" height="45" as="geometry" />
        </mxCell>
        <mxCell id="_NAjd95ejBewOYBBOETD-45" style="edgeStyle=orthogonalEdgeStyle;rounded=0;orthogonalLoop=1;jettySize=auto;html=1;exitX=0;exitY=0.5;exitDx=0;exitDy=0;" parent="dNxyNK7c78bLwvsdeMH5-19" source="_NAjd95ejBewOYBBOETD-22" target="_NAjd95ejBewOYBBOETD-18" edge="1">
          <mxGeometry relative="1" as="geometry">
            <Array as="points">
              <mxPoint x="430" y="145" />
              <mxPoint x="430" y="730" />
              <mxPoint x="294" y="730" />
            </Array>
          </mxGeometry>
        </mxCell>
        <mxCell id="_NAjd95ejBewOYBBOETD-49" value="QA" style="swimlane;html=1;startSize=20;horizontal=0;" parent="dNxyNK7c78bLwvsdeMH5-19" vertex="1">
          <mxGeometry x="20" y="980" width="440" height="160" as="geometry" />
        </mxCell>
        <mxCell id="_NAjd95ejBewOYBBOETD-19" value="Test New&amp;nbsp;&lt;div&gt;Feature&lt;/div&gt;" style="rounded=1;whiteSpace=wrap;html=1;verticalAlign=top;labelBackgroundColor=#ffffff;direction=east;rotation=270;" parent="_NAjd95ejBewOYBBOETD-49" vertex="1">
          <mxGeometry x="110" y="56.25" width="120" height="47.5" as="geometry" />
        </mxCell>
        <mxCell id="_NAjd95ejBewOYBBOETD-18" value="" style="shape=mxgraph.bpmn.gateway2;html=1;verticalLabelPosition=bottom;labelBackgroundColor=#ffffff;verticalAlign=top;align=center;outlineConnect=0;outline=end;symbol=general;points=[[0.25,0.25,0],[0.5,0,0],[0.75,0.25,0],[1,0.5,0],[0.75,0.75,0],[0.5,1,0],[0.25,0.75,0],[0,0.5,0]];perimeter=rhombusPerimeter;direction=east;rotation=270;" parent="_NAjd95ejBewOYBBOETD-49" vertex="1">
          <mxGeometry x="250" y="55" width="50" height="50" as="geometry" />
        </mxCell>
        <mxCell id="_NAjd95ejBewOYBBOETD-44" style="edgeStyle=orthogonalEdgeStyle;rounded=0;orthogonalLoop=1;jettySize=auto;html=1;exitX=0.5;exitY=1;exitDx=0;exitDy=0;entryX=0.5;entryY=0;entryDx=0;entryDy=0;entryPerimeter=0;" parent="_NAjd95ejBewOYBBOETD-49" source="_NAjd95ejBewOYBBOETD-19" target="_NAjd95ejBewOYBBOETD-18" edge="1">
          <mxGeometry relative="1" as="geometry" />
        </mxCell>
        <mxCell id="s78XeC1ukGy34A1hPwvS-19" value="Ending&lt;br&gt;User Story" style="points=[[0.145,0.145,0],[0.5,0,0],[0.855,0.145,0],[1,0.5,0],[0.855,0.855,0],[0.5,1,0],[0.145,0.855,0],[0,0.5,0]];shape=mxgraph.bpmn.event;html=1;verticalLabelPosition=bottom;labelBackgroundColor=#ffffff;verticalAlign=top;align=center;perimeter=ellipsePerimeter;outlineConnect=0;aspect=fixed;outline=standard;symbol=general;direction=east;rotation=270;" parent="_NAjd95ejBewOYBBOETD-49" vertex="1">
          <mxGeometry x="360" y="65" width="30" height="30" as="geometry" />
        </mxCell>
        <mxCell id="_NAjd95ejBewOYBBOETD-48" value="" style="edgeStyle=orthogonalEdgeStyle;rounded=0;orthogonalLoop=1;jettySize=auto;html=1;" parent="_NAjd95ejBewOYBBOETD-49" source="_NAjd95ejBewOYBBOETD-18" target="s78XeC1ukGy34A1hPwvS-19" edge="1">
          <mxGeometry relative="1" as="geometry" />
        </mxCell>
        <mxCell id="_NAjd95ejBewOYBBOETD-54" style="edgeStyle=orthogonalEdgeStyle;rounded=0;orthogonalLoop=1;jettySize=auto;html=1;entryX=0.5;entryY=0;entryDx=0;entryDy=0;" parent="dNxyNK7c78bLwvsdeMH5-19" source="s78XeC1ukGy34A1hPwvS-30" target="_NAjd95ejBewOYBBOETD-19" edge="1">
          <mxGeometry relative="1" as="geometry">
            <mxPoint x="160" y="895" as="sourcePoint" />
            <Array as="points">
              <mxPoint x="190" y="900" />
              <mxPoint x="110" y="900" />
              <mxPoint x="110" y="1060" />
            </Array>
          </mxGeometry>
        </mxCell>
        <mxCell id="_NAjd95ejBewOYBBOETD-56" style="edgeStyle=orthogonalEdgeStyle;rounded=0;orthogonalLoop=1;jettySize=auto;html=1;exitX=1;exitY=0.5;exitDx=0;exitDy=0;entryX=0.5;entryY=1;entryDx=0;entryDy=0;entryPerimeter=0;" parent="dNxyNK7c78bLwvsdeMH5-19" source="_NAjd95ejBewOYBBOETD-55" target="s78XeC1ukGy34A1hPwvS-23" edge="1">
          <mxGeometry relative="1" as="geometry" />
        </mxCell>
        <mxCell id="_NAjd95ejBewOYBBOETD-58" style="edgeStyle=orthogonalEdgeStyle;rounded=0;orthogonalLoop=1;jettySize=auto;html=1;entryX=1;entryY=0.5;entryDx=0;entryDy=0;entryPerimeter=0;" parent="dNxyNK7c78bLwvsdeMH5-19" source="_NAjd95ejBewOYBBOETD-57" target="s78XeC1ukGy34A1hPwvS-23" edge="1">
          <mxGeometry relative="1" as="geometry" />
        </mxCell>
      </root>
    </mxGraphModel>
  </diagram>
  <diagram id="0DpY-kUeRSpnBOzqQ34y" name="Changed Process">
    <mxGraphModel dx="1042" dy="562" grid="1" gridSize="10" guides="1" tooltips="1" connect="1" arrows="1" fold="1" page="1" pageScale="1" pageWidth="850" pageHeight="1100" math="0" shadow="0">
      <root>
        <mxCell id="0" />
        <mxCell id="1" parent="0" />
        <mxCell id="qXKqFF_UhlsMf26A_ZMH-1" value="User story" style="swimlane;html=1;childLayout=stackLayout;resizeParent=1;resizeParentMax=0;horizontal=0;startSize=20;horizontalStack=0;" parent="1" vertex="1">
          <mxGeometry x="120" y="22" width="460" height="1020" as="geometry" />
        </mxCell>
        <mxCell id="qXKqFF_UhlsMf26A_ZMH-2" value="Product Manager" style="swimlane;html=1;startSize=20;horizontal=0;fontSize=12;" parent="qXKqFF_UhlsMf26A_ZMH-1" vertex="1">
          <mxGeometry x="20" width="440" height="180" as="geometry" />
        </mxCell>
        <mxCell id="qXKqFF_UhlsMf26A_ZMH-3" style="edgeStyle=orthogonalEdgeStyle;rounded=0;orthogonalLoop=1;jettySize=auto;html=1;exitX=0.5;exitY=1;exitDx=0;exitDy=0;exitPerimeter=0;" parent="qXKqFF_UhlsMf26A_ZMH-2" source="qXKqFF_UhlsMf26A_ZMH-4" target="qXKqFF_UhlsMf26A_ZMH-5" edge="1">
          <mxGeometry relative="1" as="geometry" />
        </mxCell>
        <mxCell id="qXKqFF_UhlsMf26A_ZMH-4" value="Gathering&lt;div&gt;requirements&lt;/div&gt;" style="points=[[0.145,0.145,0],[0.5,0,0],[0.855,0.145,0],[1,0.5,0],[0.855,0.855,0],[0.5,1,0],[0.145,0.855,0],[0,0.5,0]];shape=mxgraph.bpmn.event;html=1;verticalLabelPosition=bottom;labelBackgroundColor=#ffffff;verticalAlign=top;align=center;perimeter=ellipsePerimeter;outlineConnect=0;aspect=fixed;outline=standard;symbol=general;direction=east;rotation=270;" parent="qXKqFF_UhlsMf26A_ZMH-2" vertex="1">
          <mxGeometry x="50" y="70" width="30" height="30" as="geometry" />
        </mxCell>
        <mxCell id="qXKqFF_UhlsMf26A_ZMH-5" value="Draft PRD" style="rounded=1;whiteSpace=wrap;html=1;verticalAlign=top;labelBackgroundColor=#ffffff;fillStyle=solid;direction=east;rotation=270;" parent="qXKqFF_UhlsMf26A_ZMH-2" vertex="1">
          <mxGeometry x="110" y="70" width="120" height="30" as="geometry" />
        </mxCell>
        <mxCell id="qXKqFF_UhlsMf26A_ZMH-6" value="Test Feature" style="rounded=1;whiteSpace=wrap;html=1;verticalAlign=top;labelBackgroundColor=#ffffff;fillStyle=solid;direction=east;rotation=270;" parent="qXKqFF_UhlsMf26A_ZMH-2" vertex="1">
          <mxGeometry x="350" y="70" width="120" height="30" as="geometry" />
        </mxCell>
        <mxCell id="k5QfY9yl2i9QW7Wl_bGp-5" value="Create wireframe" style="rounded=1;whiteSpace=wrap;html=1;verticalAlign=top;labelBackgroundColor=#ffffff;fillStyle=solid;direction=east;rotation=270;" parent="qXKqFF_UhlsMf26A_ZMH-2" vertex="1">
          <mxGeometry x="165" y="70" width="120" height="30" as="geometry" />
        </mxCell>
        <mxCell id="qXKqFF_UhlsMf26A_ZMH-18" style="edgeStyle=orthogonalEdgeStyle;rounded=0;orthogonalLoop=1;jettySize=auto;html=1;exitX=0.5;exitY=1;exitDx=0;exitDy=0;entryX=0.5;entryY=0;entryDx=0;entryDy=0;" parent="qXKqFF_UhlsMf26A_ZMH-2" source="qXKqFF_UhlsMf26A_ZMH-5" target="k5QfY9yl2i9QW7Wl_bGp-5" edge="1">
          <mxGeometry relative="1" as="geometry" />
        </mxCell>
        <mxCell id="qXKqFF_UhlsMf26A_ZMH-8" value="Designer" style="swimlane;html=1;startSize=20;horizontal=0;" parent="qXKqFF_UhlsMf26A_ZMH-1" vertex="1">
          <mxGeometry x="20" y="180" width="440" height="160" as="geometry" />
        </mxCell>
        <mxCell id="k5QfY9yl2i9QW7Wl_bGp-1" value="" style="edgeStyle=orthogonalEdgeStyle;rounded=0;orthogonalLoop=1;jettySize=auto;html=1;" parent="qXKqFF_UhlsMf26A_ZMH-8" source="qXKqFF_UhlsMf26A_ZMH-9" target="qXKqFF_UhlsMf26A_ZMH-13" edge="1">
          <mxGeometry relative="1" as="geometry" />
        </mxCell>
        <mxCell id="qXKqFF_UhlsMf26A_ZMH-9" value="Design UI Pages" style="whiteSpace=wrap;html=1;verticalAlign=top;rounded=1;labelBackgroundColor=#ffffff;direction=east;rotation=270;" parent="qXKqFF_UhlsMf26A_ZMH-8" vertex="1">
          <mxGeometry x="110" y="65" width="120" height="30" as="geometry" />
        </mxCell>
        <mxCell id="qXKqFF_UhlsMf26A_ZMH-13" value="" style="shape=mxgraph.bpmn.gateway2;html=1;verticalLabelPosition=bottom;labelBackgroundColor=#ffffff;verticalAlign=top;align=center;outlineConnect=0;outline=end;symbol=general;points=[[0.25,0.25,0],[0.5,0,0],[0.75,0.25,0],[1,0.5,0],[0.75,0.75,0],[0.5,1,0],[0.25,0.75,0],[0,0.5,0]];perimeter=rhombusPerimeter;direction=east;rotation=270;" parent="qXKqFF_UhlsMf26A_ZMH-8" vertex="1">
          <mxGeometry x="250" y="55" width="50" height="50" as="geometry" />
        </mxCell>
        <mxCell id="qXKqFF_UhlsMf26A_ZMH-14" value="Backend Dev" style="swimlane;html=1;startSize=20;horizontal=0;dashed=1;dashPattern=8 8;" parent="qXKqFF_UhlsMf26A_ZMH-1" vertex="1">
          <mxGeometry x="20" y="340" width="440" height="140" as="geometry" />
        </mxCell>
        <mxCell id="qXKqFF_UhlsMf26A_ZMH-15" value="Database&lt;div&gt;and&lt;/div&gt;&lt;div&gt;Backend Code&lt;/div&gt;" style="rounded=1;whiteSpace=wrap;html=1;verticalAlign=top;labelBackgroundColor=#ffffff;direction=east;rotation=270;" parent="qXKqFF_UhlsMf26A_ZMH-14" vertex="1">
          <mxGeometry x="110" y="40" width="120" height="60" as="geometry" />
        </mxCell>
        <mxCell id="qXKqFF_UhlsMf26A_ZMH-16" value="Front Dev" style="swimlane;html=1;startSize=20;horizontal=0;strokeColor=default;perimeterSpacing=19;strokeWidth=1;dashed=1;dashPattern=8 8;" parent="qXKqFF_UhlsMf26A_ZMH-1" vertex="1">
          <mxGeometry x="20" y="480" width="440" height="160" as="geometry" />
        </mxCell>
        <mxCell id="qXKqFF_UhlsMf26A_ZMH-17" value="Create&amp;nbsp;&lt;div&gt;UI Pages&amp;nbsp;&lt;span style=&quot;background-color: light-dark(rgb(255, 255, 255), rgb(18, 18, 18)); color: light-dark(rgb(0, 0, 0), rgb(255, 255, 255));&quot;&gt;Code&lt;br&gt;Implement APIs&lt;/span&gt;&lt;/div&gt;" style="rounded=1;whiteSpace=wrap;html=1;verticalAlign=top;labelBackgroundColor=#ffffff;direction=east;rotation=270;" parent="qXKqFF_UhlsMf26A_ZMH-16" vertex="1">
          <mxGeometry x="110" y="50" width="120" height="60" as="geometry" />
        </mxCell>
        <mxCell id="qXKqFF_UhlsMf26A_ZMH-20" style="edgeStyle=orthogonalEdgeStyle;rounded=0;orthogonalLoop=1;jettySize=auto;html=1;exitX=0;exitY=0.5;exitDx=0;exitDy=0;exitPerimeter=0;entryX=0.5;entryY=1;entryDx=0;entryDy=0;" parent="qXKqFF_UhlsMf26A_ZMH-1" source="qXKqFF_UhlsMf26A_ZMH-13" target="qXKqFF_UhlsMf26A_ZMH-15" edge="1">
          <mxGeometry relative="1" as="geometry" />
        </mxCell>
        <mxCell id="qXKqFF_UhlsMf26A_ZMH-25" style="edgeStyle=orthogonalEdgeStyle;rounded=0;orthogonalLoop=1;jettySize=auto;html=1;exitX=0;exitY=0.5;exitDx=0;exitDy=0;" parent="qXKqFF_UhlsMf26A_ZMH-1" source="qXKqFF_UhlsMf26A_ZMH-6" target="qXKqFF_UhlsMf26A_ZMH-28" edge="1">
          <mxGeometry relative="1" as="geometry">
            <Array as="points">
              <mxPoint x="430" y="828" />
              <mxPoint x="294" y="828" />
            </Array>
          </mxGeometry>
        </mxCell>
        <mxCell id="qXKqFF_UhlsMf26A_ZMH-22" value="Tech Lead" style="swimlane;html=1;startSize=20;horizontal=0;" parent="qXKqFF_UhlsMf26A_ZMH-1" vertex="1">
          <mxGeometry x="20" y="640" width="440" height="170" as="geometry" />
        </mxCell>
        <mxCell id="qXKqFF_UhlsMf26A_ZMH-23" value="Check and&amp;nbsp;&lt;div&gt;Code Review&lt;/div&gt;" style="rounded=1;whiteSpace=wrap;html=1;verticalAlign=top;labelBackgroundColor=#ffffff;direction=east;rotation=270;" parent="qXKqFF_UhlsMf26A_ZMH-22" vertex="1">
          <mxGeometry x="80" y="47.5" width="120" height="60" as="geometry" />
        </mxCell>
        <mxCell id="qXKqFF_UhlsMf26A_ZMH-24" value="Check&amp;nbsp;&lt;div&gt;Feasibility&lt;/div&gt;" style="rounded=1;whiteSpace=wrap;html=1;verticalAlign=top;labelBackgroundColor=#ffffff;direction=east;rotation=270;" parent="qXKqFF_UhlsMf26A_ZMH-22" vertex="1">
          <mxGeometry x="292.5" y="62.5" width="120" height="45" as="geometry" />
        </mxCell>
        <mxCell id="qXKqFF_UhlsMf26A_ZMH-34" style="edgeStyle=orthogonalEdgeStyle;rounded=0;orthogonalLoop=1;jettySize=auto;html=1;exitX=1;exitY=0.5;exitDx=0;exitDy=0;entryX=0.5;entryY=1;entryDx=0;entryDy=0;entryPerimeter=0;" parent="qXKqFF_UhlsMf26A_ZMH-1" source="qXKqFF_UhlsMf26A_ZMH-24" target="qXKqFF_UhlsMf26A_ZMH-13" edge="1">
          <mxGeometry relative="1" as="geometry" />
        </mxCell>
        <mxCell id="k5QfY9yl2i9QW7Wl_bGp-2" style="edgeStyle=orthogonalEdgeStyle;rounded=0;orthogonalLoop=1;jettySize=auto;html=1;exitX=0;exitY=0.5;exitDx=0;exitDy=0;exitPerimeter=0;" parent="qXKqFF_UhlsMf26A_ZMH-1" source="qXKqFF_UhlsMf26A_ZMH-13" edge="1">
          <mxGeometry relative="1" as="geometry">
            <mxPoint x="305" y="295" as="sourcePoint" />
            <mxPoint x="220" y="568" as="targetPoint" />
            <Array as="points">
              <mxPoint x="295" y="568" />
            </Array>
          </mxGeometry>
        </mxCell>
        <mxCell id="k5QfY9yl2i9QW7Wl_bGp-6" style="edgeStyle=orthogonalEdgeStyle;rounded=0;orthogonalLoop=1;jettySize=auto;html=1;exitX=0;exitY=0.5;exitDx=0;exitDy=0;entryX=0.5;entryY=0;entryDx=0;entryDy=0;" parent="qXKqFF_UhlsMf26A_ZMH-1" source="k5QfY9yl2i9QW7Wl_bGp-5" target="qXKqFF_UhlsMf26A_ZMH-9" edge="1">
          <mxGeometry relative="1" as="geometry">
            <Array as="points">
              <mxPoint x="245" y="158" />
              <mxPoint x="120" y="158" />
              <mxPoint x="120" y="260" />
            </Array>
          </mxGeometry>
        </mxCell>
        <mxCell id="k5QfY9yl2i9QW7Wl_bGp-7" style="edgeStyle=orthogonalEdgeStyle;rounded=0;orthogonalLoop=1;jettySize=auto;html=1;entryX=0.5;entryY=0;entryDx=0;entryDy=0;exitX=0.5;exitY=0;exitDx=0;exitDy=0;" parent="qXKqFF_UhlsMf26A_ZMH-1" source="qXKqFF_UhlsMf26A_ZMH-17" target="qXKqFF_UhlsMf26A_ZMH-23" edge="1">
          <mxGeometry relative="1" as="geometry">
            <Array as="points">
              <mxPoint x="100" y="560" />
              <mxPoint x="100" y="717" />
            </Array>
          </mxGeometry>
        </mxCell>
        <mxCell id="k5QfY9yl2i9QW7Wl_bGp-8" style="edgeStyle=orthogonalEdgeStyle;rounded=0;orthogonalLoop=1;jettySize=auto;html=1;entryX=0;entryY=0.5;entryDx=0;entryDy=0;" parent="qXKqFF_UhlsMf26A_ZMH-1" source="qXKqFF_UhlsMf26A_ZMH-15" target="qXKqFF_UhlsMf26A_ZMH-23" edge="1">
          <mxGeometry relative="1" as="geometry">
            <Array as="points">
              <mxPoint x="80" y="432" />
              <mxPoint x="80" y="798" />
              <mxPoint x="160" y="798" />
            </Array>
          </mxGeometry>
        </mxCell>
        <mxCell id="k5QfY9yl2i9QW7Wl_bGp-9" style="edgeStyle=orthogonalEdgeStyle;rounded=0;orthogonalLoop=1;jettySize=auto;html=1;entryX=0.5;entryY=0;entryDx=0;entryDy=0;" parent="qXKqFF_UhlsMf26A_ZMH-1" source="qXKqFF_UhlsMf26A_ZMH-23" target="qXKqFF_UhlsMf26A_ZMH-27" edge="1">
          <mxGeometry relative="1" as="geometry">
            <Array as="points">
              <mxPoint x="250" y="718" />
              <mxPoint x="250" y="828" />
              <mxPoint x="110" y="828" />
              <mxPoint x="110" y="913" />
            </Array>
          </mxGeometry>
        </mxCell>
        <mxCell id="qXKqFF_UhlsMf26A_ZMH-26" value="QA" style="swimlane;html=1;startSize=20;horizontal=0;" parent="qXKqFF_UhlsMf26A_ZMH-1" vertex="1">
          <mxGeometry x="20" y="810" width="440" height="210" as="geometry" />
        </mxCell>
        <mxCell id="qXKqFF_UhlsMf26A_ZMH-27" value="Test New&amp;nbsp;&lt;div&gt;Feature&lt;/div&gt;" style="rounded=1;whiteSpace=wrap;html=1;verticalAlign=top;labelBackgroundColor=#ffffff;direction=east;rotation=270;" parent="qXKqFF_UhlsMf26A_ZMH-26" vertex="1">
          <mxGeometry x="110" y="79.25" width="120" height="47.5" as="geometry" />
        </mxCell>
        <mxCell id="qXKqFF_UhlsMf26A_ZMH-28" value="" style="shape=mxgraph.bpmn.gateway2;html=1;verticalLabelPosition=bottom;labelBackgroundColor=#ffffff;verticalAlign=top;align=center;outlineConnect=0;outline=end;symbol=general;points=[[0.25,0.25,0],[0.5,0,0],[0.75,0.25,0],[1,0.5,0],[0.75,0.75,0],[0.5,1,0],[0.25,0.75,0],[0,0.5,0]];perimeter=rhombusPerimeter;direction=east;rotation=270;" parent="qXKqFF_UhlsMf26A_ZMH-26" vertex="1">
          <mxGeometry x="250" y="78" width="50" height="50" as="geometry" />
        </mxCell>
        <mxCell id="qXKqFF_UhlsMf26A_ZMH-29" style="edgeStyle=orthogonalEdgeStyle;rounded=0;orthogonalLoop=1;jettySize=auto;html=1;exitX=0.5;exitY=1;exitDx=0;exitDy=0;entryX=0.5;entryY=0;entryDx=0;entryDy=0;entryPerimeter=0;" parent="qXKqFF_UhlsMf26A_ZMH-26" source="qXKqFF_UhlsMf26A_ZMH-27" target="qXKqFF_UhlsMf26A_ZMH-28" edge="1">
          <mxGeometry relative="1" as="geometry" />
        </mxCell>
        <mxCell id="qXKqFF_UhlsMf26A_ZMH-30" value="Ending&lt;br&gt;User Story" style="points=[[0.145,0.145,0],[0.5,0,0],[0.855,0.145,0],[1,0.5,0],[0.855,0.855,0],[0.5,1,0],[0.145,0.855,0],[0,0.5,0]];shape=mxgraph.bpmn.event;html=1;verticalLabelPosition=bottom;labelBackgroundColor=#ffffff;verticalAlign=top;align=center;perimeter=ellipsePerimeter;outlineConnect=0;aspect=fixed;outline=standard;symbol=general;direction=east;rotation=270;" parent="qXKqFF_UhlsMf26A_ZMH-26" vertex="1">
          <mxGeometry x="360" y="88" width="30" height="30" as="geometry" />
        </mxCell>
        <mxCell id="qXKqFF_UhlsMf26A_ZMH-31" value="" style="edgeStyle=orthogonalEdgeStyle;rounded=0;orthogonalLoop=1;jettySize=auto;html=1;" parent="qXKqFF_UhlsMf26A_ZMH-26" source="qXKqFF_UhlsMf26A_ZMH-28" target="qXKqFF_UhlsMf26A_ZMH-30" edge="1">
          <mxGeometry relative="1" as="geometry" />
        </mxCell>
        <mxCell id="kydut7H6hkLnqzfjv38s-1" style="edgeStyle=orthogonalEdgeStyle;rounded=0;orthogonalLoop=1;jettySize=auto;html=1;entryX=1;entryY=0.5;entryDx=0;entryDy=0;entryPerimeter=0;" edge="1" parent="qXKqFF_UhlsMf26A_ZMH-1" source="k5QfY9yl2i9QW7Wl_bGp-5" target="qXKqFF_UhlsMf26A_ZMH-13">
          <mxGeometry relative="1" as="geometry" />
        </mxCell>
      </root>
    </mxGraphModel>
  </diagram>
</mxfile>
